<?xml version="1.0" encoding="UTF-8"?>
<!DOCTYPE svg PUBLIC "-//W3C//DTD SVG 1.1//EN" "http://www.w3.org/Graphics/SVG/1.1/DTD/svg11.dtd">
<svg xmlns="http://www.w3.org/2000/svg" version="1.1" width="1587px" height="2245px" style="shape-rendering:geometricPrecision; text-rendering:geometricPrecision; image-rendering:optimizeQuality; fill-rule:evenodd; clip-rule:evenodd" xmlns:xlink="http://www.w3.org/1999/xlink">
<g><path style="opacity:1" fill="#fefefe" d="M -0.5,-0.5 C 528.5,-0.5 1057.5,-0.5 1586.5,-0.5C 1586.5,747.833 1586.5,1496.17 1586.5,2244.5C 1057.5,2244.5 528.5,2244.5 -0.5,2244.5C -0.5,1496.17 -0.5,747.833 -0.5,-0.5 Z"/></g>
<g><path style="opacity:1" fill="#020101" d="M 1126.5,1064.5 C 1126.5,1068.5 1126.5,1072.5 1126.5,1076.5C 1125.5,1076.5 1124.5,1076.5 1123.5,1076.5C 1114.52,1075.42 1105.69,1073.75 1097,1071.5C 1088.09,1043.75 1077.42,1016.75 1065,990.5C 1058.19,978.996 1048.36,971.163 1035.5,967C 1019.72,962.222 1003.72,958.388 987.5,955.5C 993.375,984.208 999.375,1012.87 1005.5,1041.5C 989.833,1041.5 974.167,1041.5 958.5,1041.5C 947.576,1103.38 937.409,1165.38 928,1227.5C 926.614,1242.14 926.28,1256.81 927,1271.5C 928.758,1283.19 934.258,1292.69 943.5,1300C 949.389,1305.52 955.556,1310.69 962,1315.5C 961.33,1324.53 960.163,1333.53 958.5,1342.5C 931.128,1338.05 903.795,1333.38 876.5,1328.5C 875.791,1327.6 874.791,1327.26 873.5,1327.5C 873.5,1334.83 873.5,1342.17 873.5,1349.5C 797.167,1349.5 720.833,1349.5 644.5,1349.5C 644.824,1342.65 644.491,1335.98 643.5,1329.5C 611.808,1333.98 580.142,1338.65 548.5,1343.5C 547.937,1335.46 546.937,1327.46 545.5,1319.5C 545.833,1318.5 546.167,1317.5 546.5,1316.5C 556.445,1308.73 565.945,1300.39 575,1291.5C 581.2,1280.53 584.033,1268.7 583.5,1256C 582.892,1239.09 581.392,1222.25 579,1205.5C 570.939,1150.8 562.772,1096.13 554.5,1041.5C 541.5,1041.5 528.5,1041.5 515.5,1041.5C 521.273,1013.19 526.94,984.86 532.5,956.5C 512.679,958.431 493.345,962.598 474.5,969C 465.544,972.622 458.377,978.455 453,986.5C 448.826,992.846 445.159,999.512 442,1006.5C 433.135,1027.93 424.969,1049.6 417.5,1071.5C 407.409,1072.18 397.409,1073.52 387.5,1075.5C 390.539,1013.84 393.539,952.171 396.5,890.5C 448.161,882.402 499.828,874.235 551.5,866C 554.943,852.621 557.943,839.121 560.5,825.5C 693.833,825.5 827.167,825.5 960.5,825.5C 962.545,838.965 965.211,852.298 968.5,865.5C 1019.09,874.632 1069.76,883.298 1120.5,891.5C 1122.94,949.148 1124.94,1006.82 1126.5,1064.5 Z"/></g>
<g><path style="opacity:1" fill="#d30b0b" d="M 844.5,1320.5 C 787.331,1320.83 730.331,1320.5 673.5,1319.5C 687.406,1312.8 699.572,1303.8 710,1292.5C 713.803,1286.56 716.803,1280.23 719,1273.5C 724.442,1246.47 727.109,1219.14 727,1191.5C 727.5,1097.83 727.667,1004.17 727.5,910.5C 702.152,910.29 676.819,910.79 651.5,912C 623.338,914.329 601.838,927.496 587,951.5C 574.568,971.445 562.735,991.778 551.5,1012.5C 551.167,1012.33 550.833,1012.17 550.5,1012C 562.074,959.631 573.074,907.131 583.5,854.5C 701.169,854.167 818.835,854.5 936.5,855.5C 948.05,907.75 958.883,960.084 969,1012.5C 957.838,992.172 946.171,972.172 934,952.5C 926.181,941.015 916.681,931.181 905.5,923C 893.265,916.691 880.265,913.024 866.5,912C 841.185,910.692 815.852,910.192 790.5,910.5C 790.333,996.501 790.5,1082.5 791,1168.5C 791.198,1198.92 792.865,1229.25 796,1259.5C 797.931,1277.53 805.765,1292.37 819.5,1304C 827.738,1309.76 836.072,1315.26 844.5,1320.5 Z"/></g>
<g><path style="opacity:1" fill="#0049ab" d="M 972.5,883.5 C 1016.5,890.834 1060.5,898.167 1104.5,905.5C 1107.02,955.468 1108.52,1005.47 1109,1055.5C 1101.78,1034.52 1093.78,1013.85 1085,993.5C 1079.13,979.307 1069.97,967.807 1057.5,959C 1050.66,955.61 1043.66,952.61 1036.5,950C 1019.13,945.426 1001.63,941.592 984,938.5C 979.691,920.265 975.858,901.932 972.5,883.5 Z"/></g>
<g><path style="opacity:1" fill="#5c16e8" d="M 406.5,1053.5 C 405.517,1049.7 405.183,1045.7 405.5,1041.5C 407.782,995.831 410.116,950.164 412.5,904.5C 457.79,896.792 503.123,890.126 548.5,884.5C 544.514,902.441 540.848,920.441 537.5,938.5C 518.662,941.042 499.995,944.542 481.5,949C 461.117,954.09 445.617,965.59 435,983.5C 424.111,1006.28 414.611,1029.61 406.5,1053.5 Z"/></g>
<g><path style="opacity:1" fill="#fefefe" d="M 663.5,940.5 C 674.833,940.5 686.167,940.5 697.5,940.5C 697.5,1022.5 697.5,1104.5 697.5,1186.5C 698.568,1211.72 696.734,1236.72 692,1261.5C 686.709,1253.58 683.042,1244.91 681,1235.5C 677.572,1222.26 674.572,1208.93 672,1195.5C 658.572,1113.03 645.405,1030.53 632.5,948C 633.444,946.523 634.777,945.523 636.5,945C 645.261,942.058 654.261,940.558 663.5,940.5 Z"/></g>
<g><path style="opacity:1" fill="#d8d8d8" d="M 663.5,940.5 C 674.988,939.505 686.655,939.172 698.5,939.5C 698.833,1022 698.499,1104.34 697.5,1186.5C 697.5,1104.5 697.5,1022.5 697.5,940.5C 686.167,940.5 674.833,940.5 663.5,940.5 Z"/></g>
<g><path style="opacity:1" fill="#fefefe" d="M 852.5,940.5 C 861.691,940.274 870.691,941.44 879.5,944C 880.516,944.519 881.182,945.353 881.5,946.5C 868.379,1022.18 855.212,1097.85 842,1173.5C 838.05,1198.02 832.05,1222.02 824,1245.5C 823.667,1244.17 823.333,1242.83 823,1241.5C 821.456,1215.19 820.623,1188.86 820.5,1162.5C 820.5,1088.5 820.5,1014.5 820.5,940.5C 831.167,940.5 841.833,940.5 852.5,940.5 Z"/></g>
<g><path style="opacity:1" fill="#0049ab" d="M 896.5,953.5 C 903.608,960.365 909.774,968.032 915,976.5C 925.22,993.773 935.054,1011.27 944.5,1029C 934.065,1088.45 923.898,1147.95 914,1207.5C 911.84,1224.11 910.34,1240.78 909.5,1257.5C 908.293,1274.29 912.793,1289.29 923,1302.5C 929.901,1310.07 937.401,1316.9 945.5,1323C 922.471,1319.88 899.471,1316.22 876.5,1312C 874.98,1309.46 873.98,1306.63 873.5,1303.5C 858.711,1295.54 844.877,1286.2 832,1275.5C 831.03,1273.73 830.196,1271.89 829.5,1270C 835.196,1261.11 839.696,1251.61 843,1241.5C 847.044,1226.95 850.711,1212.28 854,1197.5C 869.127,1116.33 883.294,1034.99 896.5,953.5 Z"/></g>
<g><path style="opacity:1" fill="#5d16e9" d="M 617.5,959.5 C 631.138,1045.78 645.305,1132.11 660,1218.5C 662.93,1235.96 668.263,1252.62 676,1268.5C 678.5,1271.67 681,1274.83 683.5,1278C 671.183,1287.5 658.183,1296 644.5,1303.5C 643.516,1306.43 643.183,1309.43 643.5,1312.5C 616.48,1316.89 589.48,1321.06 562.5,1325C 572.631,1317.2 581.797,1308.37 590,1298.5C 597.25,1284.92 600.416,1270.42 599.5,1255C 598.9,1240.13 597.733,1225.3 596,1210.5C 588.148,1155.43 579.815,1100.43 571,1045.5C 570.333,1042.83 570.333,1040.17 571,1037.5C 585.253,1010.65 600.753,984.646 617.5,959.5 Z"/></g>
<g><path style="opacity:1" fill="#6d6d6d" d="M 852.5,940.5 C 841.833,940.5 831.167,940.5 820.5,940.5C 820.5,1014.5 820.5,1088.5 820.5,1162.5C 819.501,1088.34 819.167,1014 819.5,939.5C 830.679,939.172 841.679,939.505 852.5,940.5 Z"/></g>
<g><path style="opacity:1" fill="#340d83" d="M 405.5,1041.5 C 405.183,1045.7 405.517,1049.7 406.5,1053.5C 406.013,1054.47 405.513,1055.47 405,1056.5C 404.184,1051.32 404.35,1046.32 405.5,1041.5 Z"/></g>
<g><path style="opacity:1" fill="#8a8a8a" d="M 1126.5,1064.5 C 1127.48,1068.63 1127.82,1072.97 1127.5,1077.5C 1125.9,1077.77 1124.57,1077.43 1123.5,1076.5C 1124.5,1076.5 1125.5,1076.5 1126.5,1076.5C 1126.5,1072.5 1126.5,1068.5 1126.5,1064.5 Z"/></g>
<g><path style="opacity:1" fill="#690505" d="M 673.5,1319.5 C 730.331,1320.5 787.331,1320.83 844.5,1320.5C 787.332,1321.83 729.999,1321.83 672.5,1320.5C 672.624,1319.89 672.957,1319.56 673.5,1319.5 Z"/></g>
<g><path style="opacity:1" fill="#414141" d="M 876.5,1328.5 C 874.537,1335.42 873.87,1342.76 874.5,1350.5C 797.5,1350.5 720.5,1350.5 643.5,1350.5C 643.5,1343.5 643.5,1336.5 643.5,1329.5C 644.491,1335.98 644.824,1342.65 644.5,1349.5C 720.833,1349.5 797.167,1349.5 873.5,1349.5C 873.5,1342.17 873.5,1334.83 873.5,1327.5C 874.791,1327.26 875.791,1327.6 876.5,1328.5 Z"/></g>
</svg>
