<?xml version="1.0" standalone="no"?>
<!DOCTYPE svg PUBLIC "-//W3C//DTD SVG 20010904//EN"
 "http://www.w3.org/TR/2001/REC-SVG-20010904/DTD/svg10.dtd">
<svg version="1.0" xmlns="http://www.w3.org/2000/svg"
 width="605.000000pt" height="413.000000pt" viewBox="0 0 605.000000 413.000000"
 preserveAspectRatio="xMidYMid meet">

<g transform="translate(0.000000,413.000000) scale(0.100000,-0.100000)"
fill="#FFFFFF" stroke="none">
<path d="M1353 3936 c-88 -28 -173 -129 -173 -208 0 -15 -5 -30 -11 -34 -6 -3
-213 -39 -461 -80 -297 -49 -466 -81 -499 -95 -90 -39 -142 -121 -141 -224 1
-97 117 -765 140 -812 12 -22 37 -54 57 -71 76 -68 138 -75 345 -42 197 32
272 81 307 200 15 52 15 62 -7 198 -12 78 -21 144 -19 147 5 4 239 45 261 45
11 0 17 -17 22 -67 11 -108 25 -143 82 -200 l52 -52 82 -498 c45 -274 103
-627 129 -786 26 -158 47 -287 45 -287 -26 0 -161 -33 -186 -46 -71 -36 -121
-104 -134 -182 -8 -51 31 -291 58 -352 35 -81 105 -135 190 -146 27 -3 134 10
291 36 137 22 252 38 258 35 5 -4 9 -23 9 -44 0 -54 47 -140 97 -178 23 -17
65 -36 93 -42 56 -12 1141 -16 1224 -5 105 15 202 109 213 209 7 55 -13 54
283 15 253 -34 277 -35 332 -18 52 15 132 87 151 137 19 46 47 239 47 319 -1
73 -25 126 -82 179 -48 43 -87 59 -176 70 l-53 6 5 36 c3 20 20 142 36 271
134 1029 160 1236 160 1246 0 7 15 17 33 23 18 6 50 28 71 48 57 56 79 106 84
196 4 64 7 77 22 77 35 0 185 -22 191 -29 4 -3 1 -51 -7 -106 -17 -125 -17
-196 -2 -246 15 -50 69 -114 119 -140 40 -20 281 -59 365 -59 90 0 181 58 225
142 14 27 32 139 69 424 44 337 49 394 40 440 -19 91 -82 157 -175 184 -22 6
-220 35 -439 63 l-400 52 -11 50 c-16 68 -37 105 -84 148 -79 71 21 67 -1615
66 -1186 0 -1479 -3 -1513 -13z m3003 -211 c12 -17 14 -86 12 -448 -3 -411 -4
-429 -22 -443 -15 -11 -58 -14 -181 -14 -144 0 -164 2 -178 18 -14 16 -17 54
-19 283 l-3 264 -437 3 -438 2 0 -1345 0 -1345 179 0 c151 0 182 -3 196 -16
13 -13 15 -39 13 -167 -3 -150 -3 -152 -28 -164 -36 -18 -1134 -18 -1170 0
-25 12 -25 14 -28 164 -2 128 0 154 13 167 14 14 46 16 211 16 l194 0 0 1345
0 1345 -445 0 -445 0 0 -265 c0 -252 -1 -266 -20 -285 -18 -18 -33 -20 -183
-20 -146 0 -166 2 -181 18 -15 17 -16 60 -14 453 l3 433 25 13 c20 10 319 12
1478 10 1436 -2 1454 -2 1468 -22z m-3195 -555 c-6 -3 -121 -23 -256 -45 -229
-36 -245 -40 -245 -59 0 -12 16 -113 35 -225 36 -216 36 -234 -8 -250 -42 -15
-246 -43 -271 -37 -13 3 -27 14 -30 24 -10 32 -116 682 -116 712 0 20 7 34 23
44 12 7 211 44 442 81 231 37 422 70 425 72 3 3 6 -66 8 -153 1 -95 -1 -160
-7 -164z m3814 260 c347 -45 392 -52 407 -71 11 -12 15 -31 13 -47 -3 -15 -23
-169 -45 -342 -48 -375 -46 -367 -72 -381 -33 -17 -282 18 -305 43 -16 18 -15
30 11 244 16 124 26 227 24 230 -3 2 -101 17 -219 32 l-214 28 -3 157 c-1 86
1 157 5 157 5 0 184 -23 398 -50z m-2586 -402 c15 -97 29 -149 51 -192 l30
-59 0 -778 c0 -428 -3 -780 -7 -782 -5 -3 -38 -8 -75 -12 l-67 -7 -6 33 c-5
32 -120 735 -251 1528 -30 184 -52 336 -49 339 5 5 301 59 336 61 13 1 20 -25
38 -131z m1120 72 c85 -11 156 -21 157 -23 2 -1 -24 -209 -57 -462 -32 -253
-86 -669 -119 -925 -74 -573 -67 -532 -88 -526 -9 2 -38 7 -65 11 l-47 6 2
962 c2 529 7 968 11 975 5 6 18 10 30 7 12 -2 91 -14 176 -25z m359 -429 c53
-41 92 -51 203 -51 54 0 100 -3 102 -7 3 -5 -10 -123 -29 -263 -18 -140 -56
-430 -84 -645 -27 -214 -62 -483 -77 -597 -15 -114 -24 -210 -21 -213 3 -4 72
-15 154 -25 95 -13 153 -25 163 -34 13 -13 13 -30 -1 -142 -19 -150 -25 -159
-103 -149 -292 37 -476 62 -480 67 -4 3 -10 33 -15 66 -11 77 -29 110 -86 161
-55 49 -89 59 -211 68 l-93 6 0 32 0 32 133 -18 c72 -10 141 -18 153 -19 19 0
22 17 62 327 23 181 74 571 112 868 39 297 70 545 70 552 0 19 7 16 48 -16z
m-1954 -238 c143 -878 238 -1450 241 -1459 2 -7 48 -3 147 12 78 13 149 22
156 19 7 -3 12 -22 12 -48 l0 -44 -107 -6 c-138 -8 -175 -19 -231 -70 -51 -47
-81 -105 -82 -157 0 -19 -4 -40 -8 -45 -4 -6 -124 -30 -266 -53 -252 -41 -260
-42 -278 -24 -20 20 -62 233 -52 264 7 23 43 33 211 59 133 22 142 24 138 44
-3 11 -27 157 -55 325 -27 168 -88 538 -135 823 -47 285 -85 524 -85 531 0 11
31 15 143 18 110 3 149 7 172 20 17 10 33 17 36 18 3 0 23 -102 43 -227z"/>
</g>
</svg>
